<?xml version="1.0" standalone="no"?>
<!DOCTYPE svg PUBLIC "-//W3C//DTD SVG 20010904//EN"
 "http://www.w3.org/TR/2001/REC-SVG-20010904/DTD/svg10.dtd">
<svg version="1.0" xmlns="http://www.w3.org/2000/svg"
 width="455.000000pt" height="455.000000pt" viewBox="0 0 455.000000 455.000000"
 preserveAspectRatio="xMidYMid meet">
<metadata>
Created by potrace 1.14, written by Peter Selinger 2001-2017
</metadata>
<g transform="translate(0.000000,455.000000) scale(0.100000,-0.100000)"
fill="#000000" stroke="none">
<path d="M1050 3680 l-865 -498 -12 27 c-9 20 -12 -342 -12 -1591 l-1 -1618
1070 0 1070 0 118 69 c115 67 1266 822 1288 844 9 9 -33 97 -167 352 -98 187
-179 345 -179 350 0 12 13 20 545 325 204 117 372 215 374 217 5 4 -159 1265
-165 1272 -3 3 -237 -68 -521 -157 -284 -89 -519 -160 -521 -157 -4 4 38 265
123 775 25 146 45 271 45 278 0 9 -151 12 -662 11 l-663 -1 -865 -498z m1920
251 c0 -17 -172 -1067 -186 -1132 -5 -26 0 -25 567 153 315 98 574 176 576
174 6 -6 103 -741 103 -776 0 -24 -14 -29 -550 -189 -302 -91 -554 -168 -560
-171 -6 -4 97 -211 246 -494 142 -271 252 -491 248 -496 -24 -23 -799 -528
-805 -524 -4 2 -125 218 -270 479 -145 261 -266 474 -270 473 -4 -2 -188 -203
-408 -448 -221 -245 -406 -445 -412 -445 -9 0 -517 444 -553 484 -18 19 -8 30
416 477 238 251 433 459 433 462 0 2 -232 95 -515 205 -283 110 -516 201 -517
202 -2 1 87 186 196 411 182 374 201 409 222 407 13 -1 240 -92 503 -202 264
-110 481 -199 482 -198 1 1 43 254 93 562 51 308 95 570 98 583 l5 22 429 0
c417 0 429 -1 429 -19z"/>
</g>
</svg>
